<svg width="301" height="492" viewBox="0 0 301 492" fill="none" xmlns="http://www.w3.org/2000/svg">
<g filter="url(#filter0_d_757_219)">
<path d="M2 5.00157C2 2.23928 4.23928 0 7.00157 0H293.16C295.922 0 298.161 2.23928 298.161 5.00157V482.652C298.161 485.414 295.922 487.654 293.16 487.654H7.00159C4.2393 487.654 2 485.414 2 482.652V5.00157Z" fill="#FFFCFC"/>
<path d="M7.00157 0.250079H293.16C295.784 0.250079 297.911 2.3774 297.911 5.00157V482.652C297.911 485.276 295.784 487.403 293.16 487.403H7.00159C4.37741 487.403 2.25008 485.276 2.25008 482.652V5.00157C2.25008 2.3774 4.3774 0.250079 7.00157 0.250079Z" stroke="black" stroke-width="0.500157"/>
<path d="M7.00157 0.250079H293.16C295.784 0.250079 297.911 2.3774 297.911 5.00157V482.652C297.911 485.276 295.784 487.403 293.16 487.403H7.00159C4.37741 487.403 2.25008 485.276 2.25008 482.652V5.00157C2.25008 2.3774 4.3774 0.250079 7.00157 0.250079Z" stroke="black" stroke-opacity="0.2" stroke-width="0.500157"/>
</g>
<defs>
<filter id="filter0_d_757_219" x="-0.000629902" y="0" width="300.162" height="491.655" filterUnits="userSpaceOnUse" color-interpolation-filters="sRGB">
<feFlood flood-opacity="0" result="BackgroundImageFix"/>
<feColorMatrix in="SourceAlpha" type="matrix" values="0 0 0 0 0 0 0 0 0 0 0 0 0 0 0 0 0 0 127 0" result="hardAlpha"/>
<feOffset dy="2.00063"/>
<feGaussianBlur stdDeviation="1.00031"/>
<feComposite in2="hardAlpha" operator="out"/>
<feColorMatrix type="matrix" values="0 0 0 0 0 0 0 0 0 0 0 0 0 0 0 0 0 0 0.25 0"/>
<feBlend mode="normal" in2="BackgroundImageFix" result="effect1_dropShadow_757_219"/>
<feBlend mode="normal" in="SourceGraphic" in2="effect1_dropShadow_757_219" result="shape"/>
</filter>
</defs>
</svg>
