<svg width="521" height="650" viewBox="0 0 521 650" fill="none" xmlns="http://www.w3.org/2000/svg">
<path d="M362.191 188.932L389.583 182.606L388.589 191.657L348.171 201.813L290.247 250.312L273.994 233.424L331.101 185.604L337.127 159.538L344.943 160.179L341.464 174.375L363.804 148.417L368.843 152.786L353.298 174.426L376.891 155.441L382.951 162.853L359.106 181.075L386.39 166.435L392.477 172.584L362.191 188.932Z" fill="#C0512B"/>
<path d="M362.191 188.932L389.583 182.606L388.589 191.657L348.171 201.813L290.247 250.312L273.994 233.424L331.101 185.604L337.127 159.538L344.943 160.179L341.464 174.375L363.804 148.417L368.843 152.786L353.298 174.426L376.891 155.441L382.951 162.853L359.106 181.075L386.39 166.435L392.477 172.584L362.191 188.932Z" stroke="#000022" stroke-width="0.845834" stroke-linecap="round" stroke-linejoin="round"/>
<path d="M352.624 209.567L289.185 264.469C288.175 265.35 287.108 266.173 285.991 266.933L284.487 268.204C271.699 278.874 255.392 278.874 239.309 267.886L166.058 214.388L208.634 177.836L264.407 235.792L325.804 182.656L352.624 209.567Z" fill="#FBD206"/>
<path d="M217.466 187.731L264.741 236.091L283.827 222.283" stroke="#000022" stroke-width="0.845834" stroke-miterlimit="10" stroke-linecap="round"/>
<path d="M520.16 66.437L294.619 25.6482L226.181 354.918L451.722 395.707L520.16 66.437Z" fill="#4B81FF"/>
<path d="M33.1064 597.184L110.086 608.083C115.18 608.804 120.071 610.454 124.482 612.938C128.892 615.423 132.734 618.693 135.789 622.563C138.845 626.433 141.053 630.826 142.288 635.492C143.523 640.158 143.761 645.005 142.988 649.757L27.1991 633.364L33.0862 597.182L33.1064 597.184Z" fill="#000022"/>
<path d="M69.0942 523.833L69.0874 523.832C56.071 521.989 43.9176 530.338 41.942 542.48L32.5219 600.377C30.5463 612.518 39.4968 623.855 52.5132 625.698L52.52 625.699C65.5364 627.542 77.6898 619.193 79.6654 607.051L89.0855 549.154C91.0611 537.012 82.1106 525.675 69.0942 523.833Z" fill="#C0512B" stroke="#000022" stroke-width="0.845834" stroke-miterlimit="10"/>
<path d="M158.282 224.887C141.656 224.062 125.232 228.598 111.769 237.736C98.3062 246.873 88.6242 260.053 84.3498 275.063L0 571.261L125.034 575.841L167.59 304.197L158.282 224.887Z" fill="#FCDBAA"/>
<path d="M77.8268 302.375C77.2617 304.28 2.60107 562.573 2.60107 562.573L119.525 565.748" stroke="#000022" stroke-width="0.845834" stroke-miterlimit="10" stroke-linecap="round"/>
<path d="M341.644 593.621L396.013 541.633C403.279 534.685 413.206 530.714 423.611 530.594C434.015 530.474 444.045 534.214 451.493 540.991L369.713 619.19L341.629 593.635L341.644 593.621Z" fill="#000022"/>
<path d="M298.739 523.581L298.734 523.585C289.541 532.376 289.728 546.454 299.152 555.03L344.09 595.922C353.514 604.497 368.607 604.323 377.8 595.532L377.805 595.528C386.998 586.737 386.811 572.659 377.387 564.083L332.449 523.191C323.025 514.616 307.933 514.79 298.739 523.581Z" fill="#C0512B" stroke="#000022" stroke-width="0.845834" stroke-miterlimit="10"/>
<path d="M87.9861 274.301C77.304 286.213 71.3425 301.192 71.1032 316.72C70.8639 332.249 76.3613 347.381 86.6719 359.575L290.152 600.192L369.075 509.614L161.584 314.918L87.9861 274.301Z" fill="#FCDBAA"/>
<path d="M255.474 113.896C255.419 116.052 254.462 118.101 252.808 119.608C251.154 121.114 248.934 121.957 246.622 121.956H246.425L238.029 121.791L237.995 123.347C237.823 131 234.7 138.339 229.197 144.018C223.694 149.697 216.181 153.335 208.035 154.266L197.448 173.18L174.733 162.116L182.645 148.035C178.342 145.003 174.873 141.061 172.523 136.534C170.173 132.006 169.01 127.023 169.129 121.994L169.537 103.645C169.738 95.2104 173.519 87.195 180.05 81.3595C186.582 75.5241 195.33 72.3458 204.372 72.5229H205.053C214.095 72.7062 222.689 76.2314 228.946 82.3235C235.202 88.4156 238.609 96.5759 238.417 105.01V105.328L246.813 105.493C249.154 105.54 251.381 106.45 253.004 108.025C254.628 109.6 255.516 111.711 255.474 113.896V113.896Z" fill="#C0512B"/>
<path d="M214.219 91.6025L214.212 91.6024C207.749 91.475 202.399 96.2589 202.263 102.287L202.185 105.704C202.049 111.732 207.177 116.723 213.64 116.85L213.647 116.85C220.11 116.977 225.46 112.194 225.596 106.165L225.674 102.749C225.81 96.7202 220.681 91.7298 214.219 91.6025Z" fill="#F8FAFC"/>
<path d="M226.092 104.664C226.175 101.023 224.065 98.0295 221.381 97.9766C218.697 97.9238 216.454 100.832 216.371 104.472C216.289 108.112 218.398 111.106 221.082 111.159C223.767 111.212 226.01 108.304 226.092 104.664Z" fill="#010024"/>
<path d="M242.836 71.2275C242.779 73.7868 241.992 76.2858 240.557 78.4676C239.121 80.6494 237.089 82.4354 234.669 83.6421C232.249 84.8489 229.528 85.4328 226.786 85.3338C224.043 85.2349 221.379 84.4567 219.066 83.0793C218.143 84.1066 216.953 84.8956 215.61 85.3708C214.267 85.8461 212.815 85.9915 211.394 85.7932C209.973 85.595 208.631 85.0597 207.496 84.2386C206.36 83.4175 205.47 82.3381 204.91 81.104C205.069 80.8056 205.208 80.4979 205.325 80.183C205.08 80.2211 204.842 80.2465 204.597 80.272C204.68 80.5559 204.784 80.834 204.91 81.104C204.072 82.717 202.813 84.1079 201.248 85.1488C199.684 86.1898 197.864 86.8475 195.956 87.0616C195.261 91.1209 193.286 94.8952 190.282 97.903C187.278 100.911 183.382 103.016 179.09 103.95C178.788 105.626 178.18 107.242 177.293 108.726C178.439 110.258 179.24 111.991 179.646 113.821C180.052 115.65 180.055 117.537 179.656 119.368C179.256 121.198 178.461 122.934 177.32 124.469C176.179 126.004 174.715 127.307 173.018 128.298C171.32 129.289 169.424 129.948 167.445 130.235C165.466 130.522 163.446 130.43 161.506 129.966C159.566 129.502 157.747 128.675 156.161 127.535C154.574 126.395 153.253 124.966 152.276 123.335C147.713 128.126 141.698 131.512 135.027 133.045C128.355 134.578 121.342 134.186 114.915 131.922C108.488 129.657 102.949 125.625 99.0307 120.361C95.1126 115.096 92.9999 108.846 92.972 102.437C92.9441 96.0282 95.0023 89.7624 98.8745 84.4682C102.747 79.1741 108.25 75.1009 114.658 72.7875C121.065 70.4741 128.075 70.0293 134.759 71.512C141.443 72.9947 147.487 76.335 152.093 81.0913C152.866 75.6697 155.907 70.7535 160.551 67.4148C165.195 64.0761 171.067 62.5859 176.884 63.2692C176.796 62.7271 176.76 62.1787 176.775 61.6306C176.821 59.5079 177.57 57.4505 178.918 55.7401C180.266 54.0297 182.149 52.7499 184.307 52.076C186.465 51.4021 188.794 51.3671 190.975 51.9758C193.155 52.5845 195.08 53.807 196.487 55.476C198.448 54.4945 200.629 53.9593 202.854 53.914C205.079 53.8688 207.283 54.3148 209.288 55.2156C209.668 53.311 210.791 51.6054 212.441 50.4289C214.091 49.2524 216.15 48.6886 218.22 48.8467C220.29 49.0047 222.223 49.8734 223.646 51.2846C225.069 52.6957 225.88 54.5491 225.922 56.4859C228.093 56.2988 230.281 56.5409 232.344 57.1966C234.407 57.8522 236.298 58.9066 237.895 60.2907C239.491 61.6749 240.756 63.3577 241.608 65.2292C242.459 67.1007 242.878 69.1187 242.836 71.1513V71.2275Z" fill="#010024"/>
<path d="M196.276 103.27C196.227 105.471 195.48 107.608 194.128 109.412C192.777 111.216 190.882 112.606 188.684 113.406C186.486 114.206 184.083 114.38 181.779 113.905C179.475 113.431 177.373 112.33 175.74 110.742C174.107 109.153 173.015 107.149 172.603 104.982C172.191 102.815 172.477 100.582 173.426 98.5671C174.374 96.5517 175.942 94.8439 177.93 93.6596C179.919 92.4754 182.24 91.8678 184.599 91.9138C187.762 91.9755 190.769 93.2066 192.959 95.3362C195.148 97.4659 196.342 100.32 196.276 103.27V103.27Z" fill="#C0512B"/>
<path d="M227.768 127.571C227.696 130.685 226.302 133.644 223.891 135.799C221.48 137.954 218.25 139.127 214.912 139.061C213.259 139.029 211.629 138.694 210.116 138.075C208.602 137.455 207.234 136.563 206.09 135.45C204.946 134.337 204.048 133.024 203.448 131.587C202.849 130.15 202.559 128.617 202.595 127.075" stroke="#010024" stroke-width="0.845834" stroke-miterlimit="10" stroke-linecap="round"/>
<path d="M203.099 350.651L55.5276 285.848L170.64 151.547L211.889 174.133L203.099 350.651Z" fill="#FBD206"/>
<path d="M74.9877 294.365C74.9877 294.365 58.1627 326.021 113.908 390.615C169.653 455.208 290.261 600.033 290.261 600.033" stroke="#000022" stroke-width="0.845834" stroke-miterlimit="10" stroke-linecap="round"/>
<path d="M281.266 585.044C281.947 583.38 352.317 506 352.317 506" stroke="#000022" stroke-width="0.845834" stroke-miterlimit="10" stroke-linecap="round"/>
<path d="M200.103 167.648L208.13 153.751C208.13 153.751 234.876 153.434 238.253 121.645H247.52C249.827 121.645 252.043 120.808 253.7 119.313C255.358 117.817 256.328 115.78 256.406 113.63V113.63C256.446 112.517 256.246 111.409 255.818 110.371C255.389 109.332 254.741 108.385 253.912 107.585C253.083 106.785 252.09 106.149 250.992 105.714C249.894 105.279 248.713 105.055 247.52 105.055H238.614C238.614 105.055 239.213 88.1667 226.542 81.9741" stroke="#000022" stroke-width="0.845834" stroke-miterlimit="10" stroke-linecap="round"/>
<path d="M179.444 154.533L183.176 148.378C183.176 148.378 172.908 141.989 169.694 125.901" stroke="#010024" stroke-width="0.845834" stroke-miterlimit="10" stroke-linecap="round"/>
<path d="M294.748 24.8176L373.725 209.644L226.644 354.456L294.748 24.8176Z" fill="#FCDBAA"/>
<path d="M348.396 250.985L376.285 255.025L371.621 263.015L329.29 257.711L329.276 257.673L318.313 260.766L279.591 271.697L272.543 249.969L320.935 236.307L333.368 219.838L340.293 223.274L334.832 230.324L366.671 214.198L369.51 220.047L346.21 234.402L375.836 225.402L378.355 234.414L348.811 242.627L380.044 238.962L383.108 246.825L348.396 250.985Z" fill="#C0512B"/>
<path d="M333.539 219.743L339.449 223.935L334.9 229.905L366.903 215.297L368.264 220.378L346.476 234.351L376.176 226.05L378.478 234.351L348.512 242.608L380.221 240.086L381.195 246.419L348.512 250.865L375.039 256.085L371.662 262.932L329.446 256.581L319.233 259.757L313.786 238.162L322.297 236.764L333.539 219.743Z" stroke="#000022" stroke-width="0.845834" stroke-linecap="round" stroke-linejoin="round"/>
<path d="M235.496 353.186L449.298 390.665L517.401 68.6487" stroke="#000022" stroke-width="0.845834" stroke-miterlimit="10" stroke-linecap="round"/>
<path d="M368.434 200.415L294.176 29.2639L253.39 234.37" stroke="#000022" stroke-width="0.845834" stroke-miterlimit="10" stroke-linecap="round"/>
<path d="M292.024 54.0347C306.314 54.0347 317.898 43.2289 317.898 29.8993C317.898 16.5697 306.314 5.76392 292.024 5.76392C277.734 5.76392 266.15 16.5697 266.15 29.8993C266.15 43.2289 277.734 54.0347 292.024 54.0347Z" fill="#FBD206"/>
<path d="M291.684 49.2707C305.974 49.2707 317.558 38.465 317.558 25.1354C317.558 11.8058 305.974 1 291.684 1C277.394 1 265.81 11.8058 265.81 25.1354C265.81 38.465 277.394 49.2707 291.684 49.2707Z" stroke="#000022" stroke-width="0.845834" stroke-miterlimit="10" stroke-linecap="round"/>
<path d="M322.058 272.993L233.194 293.006C222.55 295.404 211.32 293.759 201.975 288.434C192.631 283.108 185.937 274.538 183.366 264.609L182.004 259.318L187.451 258.086L155.558 186.779L211.862 174.323L229.701 248.584L311.001 230.273L322.058 272.993Z" fill="#FBD206"/>
<path d="M203.16 350.537L70.854 290.396L174.814 152.83L214.033 175.251L228.475 253.443L310.156 236.212" stroke="#000022" stroke-width="0.845834" stroke-miterlimit="10" stroke-linecap="round"/>
<path d="M176.401 214.306C176.401 214.306 180.486 289.564 223.383 288.268C266.28 286.972 320.888 267.607 320.888 267.607" stroke="#000022" stroke-width="0.845834" stroke-miterlimit="10" stroke-linecap="round"/>
</svg>
