<svg width="575" height="769" viewBox="0 0 575 769" fill="none" xmlns="http://www.w3.org/2000/svg">
<path d="M400.328 223.615L430.557 216.131L429.46 226.838L384.857 238.853L320.935 296.231L302.999 276.251L366.019 219.677L372.669 188.84L381.295 189.599L377.455 206.393L402.109 175.683L407.669 180.852L390.515 206.453L416.551 183.993L423.238 192.762L396.924 214.32L427.033 197L433.751 204.274L400.328 223.615Z" fill="#C0512B"/>
<path d="M400.328 223.615L430.557 216.131L429.46 226.838L384.857 238.853L320.935 296.231L302.999 276.251L366.019 219.677L372.669 188.84L381.295 189.599L377.455 206.393L402.109 175.683L407.669 180.852L390.515 206.453L416.551 183.993L423.238 192.762L396.924 214.32L427.033 197L433.751 204.274L400.328 223.615Z" stroke="#000022" stroke-width="0.803975" stroke-linecap="round" stroke-linejoin="round"/>
<path d="M389.771 248.027L319.762 312.979C318.647 314.021 317.471 314.994 316.238 315.894L314.577 317.397C300.466 330.021 282.47 330.021 264.722 317.021L183.885 253.73L230.871 210.487L292.418 279.053L360.173 216.19L389.771 248.027Z" fill="#FBD206"/>
<path d="M240.617 222.195L292.787 279.407L313.849 263.071" stroke="#000022" stroke-width="0.803975" stroke-miterlimit="10" stroke-linecap="round"/>
<path d="M574.654 78.6966L325.759 30.4414L250.235 419.985L499.13 468.24L574.654 78.6966Z" fill="#4B81FF"/>
<path d="M37.1675 706.598L122.118 719.491C127.739 720.344 133.137 722.296 138.004 725.236C142.871 728.175 147.112 732.044 150.483 736.623C153.855 741.201 156.292 746.398 157.655 751.918C159.018 757.438 159.28 763.172 158.427 768.794L30.6486 749.4L37.1453 706.595L37.1675 706.598Z" fill="#000022"/>
<path d="M76.8818 619.82L76.8743 619.818C62.51 617.638 49.0982 627.516 46.9181 641.88L36.5225 710.375C34.3424 724.739 44.2196 738.151 58.5839 740.331L58.5913 740.332C72.9556 742.513 86.3675 732.635 88.5476 718.271L98.9432 649.776C101.123 635.412 91.246 622 76.8818 619.82Z" fill="#C0512B" stroke="#000022" stroke-width="0.803975" stroke-miterlimit="10"/>
<path d="M175.305 266.151C156.958 265.175 138.833 270.542 123.976 281.352C109.119 292.162 98.4344 307.755 93.7174 325.512L0.633301 675.93L138.614 681.348L185.577 359.979L175.305 266.151Z" fill="#FCDBAA"/>
<path d="M86.5191 357.823C85.8955 360.077 3.50391 665.651 3.50391 665.651L132.535 669.408" stroke="#000022" stroke-width="0.803975" stroke-miterlimit="10" stroke-linecap="round"/>
<path d="M377.653 702.383L437.653 640.878C445.671 632.658 456.626 627.961 468.108 627.818C479.59 627.676 490.658 632.101 498.878 640.119L408.629 732.632L377.637 702.399L377.653 702.383Z" fill="#000022"/>
<path d="M330.306 619.521L330.301 619.527C320.156 629.927 320.362 646.582 330.762 656.727L380.353 705.104C390.753 715.25 407.408 715.043 417.554 704.643L417.559 704.638C427.704 694.238 427.498 677.583 417.098 667.438L367.507 619.06C357.107 608.915 340.451 609.121 330.306 619.521Z" fill="#C0512B" stroke="#000022" stroke-width="0.803975" stroke-miterlimit="10"/>
<path d="M97.7297 324.61C85.9415 338.703 79.3627 356.423 79.0986 374.795C78.8345 393.166 84.9012 411.068 96.2794 425.494L320.829 710.156L407.925 602.998L178.949 372.662L97.7297 324.61Z" fill="#FCDBAA"/>
<path d="M282.56 134.843C282.499 137.393 281.443 139.819 279.618 141.6C277.793 143.382 275.343 144.379 272.792 144.379H272.574L263.309 144.183L263.272 146.024C263.082 155.078 259.635 163.761 253.562 170.479C247.49 177.198 239.199 181.502 230.21 182.603L218.525 204.979L193.459 191.89L202.19 175.231C197.442 171.644 193.613 166.981 191.02 161.625C188.427 156.269 187.143 150.373 187.275 144.424L187.725 122.716C187.946 112.737 192.119 103.255 199.327 96.351C206.535 89.4473 216.189 85.6872 226.167 85.8967H226.919C236.897 86.1136 246.381 90.2841 253.285 97.4914C260.189 104.699 263.949 114.353 263.738 124.331V124.707L273.002 124.902C275.587 124.957 278.044 126.035 279.835 127.898C281.627 129.761 282.607 132.259 282.56 134.843V134.843Z" fill="#C0512B"/>
<path d="M237.034 108.469L237.026 108.469C229.894 108.318 223.99 113.978 223.84 121.11L223.754 125.151C223.604 132.284 229.263 138.187 236.395 138.338L236.403 138.338C243.535 138.489 249.439 132.829 249.589 125.697L249.675 121.655C249.825 114.523 244.166 108.62 237.034 108.469Z" fill="#F8FAFC"/>
<path d="M250.137 123.921C250.228 119.614 247.9 116.072 244.938 116.01C241.976 115.947 239.5 119.388 239.409 123.694C239.318 128.001 241.646 131.543 244.608 131.605C247.571 131.668 250.046 128.228 250.137 123.921Z" fill="#010024"/>
<path d="M268.614 84.3641C268.551 87.3919 267.683 90.3483 266.099 92.9295C264.515 95.5107 262.273 97.6236 259.602 99.0512C256.931 100.479 253.928 101.17 250.902 101.053C247.876 100.936 244.935 100.015 242.383 98.3853C241.365 99.6007 240.052 100.534 238.569 101.096C237.087 101.659 235.485 101.831 233.917 101.596C232.349 101.362 230.867 100.728 229.615 99.7568C228.362 98.7854 227.379 97.5085 226.761 96.0484C226.937 95.6954 227.09 95.3315 227.22 94.9589C226.949 95.004 226.686 95.0341 226.416 95.0641C226.507 95.4001 226.623 95.729 226.761 96.0484C225.836 97.9568 224.447 99.6022 222.72 100.834C220.994 102.065 218.986 102.843 216.88 103.097C216.113 107.899 213.933 112.364 210.618 115.923C207.304 119.481 203.004 121.972 198.268 123.076C197.935 125.06 197.264 126.971 196.284 128.727C197.549 130.539 198.433 132.59 198.881 134.754C199.329 136.918 199.333 139.151 198.892 141.316C198.451 143.482 197.574 145.535 196.314 147.351C195.055 149.168 193.44 150.709 191.567 151.882C189.693 153.054 187.601 153.834 185.417 154.173C183.233 154.512 181.003 154.404 178.863 153.855C176.722 153.306 174.715 152.327 172.964 150.978C171.213 149.63 169.755 147.939 168.678 146.009C163.641 151.677 157.003 155.683 149.642 157.497C142.28 159.311 134.54 158.848 127.448 156.168C120.355 153.489 114.242 148.72 109.918 142.491C105.594 136.263 103.263 128.869 103.232 121.287C103.201 113.705 105.473 106.292 109.746 100.029C114.019 93.7652 120.093 88.9465 127.164 86.2096C134.235 83.4727 141.97 82.9465 149.346 84.7006C156.722 86.4547 163.393 90.4065 168.475 96.0334C169.328 89.6194 172.684 83.8032 177.809 79.8534C182.934 75.9036 189.413 74.1406 195.833 74.949C195.736 74.3076 195.696 73.6589 195.713 73.0104C195.764 70.4992 196.59 68.0652 198.078 66.0416C199.566 64.0181 201.643 62.5041 204.025 61.7068C206.407 60.9096 208.977 60.8682 211.383 61.5883C213.789 62.3084 215.914 63.7547 217.466 65.7293C219.63 64.568 222.038 63.9348 224.493 63.8813C226.948 63.8278 229.38 64.3554 231.593 65.4212C232.011 63.1679 233.251 61.1501 235.072 59.7582C236.893 58.3663 239.165 57.6994 241.449 57.8864C243.734 58.0734 245.867 59.101 247.438 60.7705C249.008 62.44 249.903 64.6326 249.95 66.924C252.345 66.7026 254.759 66.9891 257.036 67.7647C259.313 68.5404 261.4 69.7877 263.162 71.4253C264.923 73.0628 266.32 75.0537 267.259 77.2677C268.199 79.4818 268.661 81.8692 268.614 84.2739V84.3641Z" fill="#010024"/>
<path d="M217.233 122.272C217.179 124.875 216.354 127.404 214.863 129.539C213.372 131.673 211.281 133.317 208.855 134.264C206.43 135.21 203.778 135.415 201.235 134.854C198.692 134.293 196.373 132.991 194.571 131.112C192.768 129.233 191.564 126.861 191.109 124.297C190.655 121.734 190.97 119.093 192.017 116.708C193.063 114.324 194.793 112.304 196.988 110.902C199.183 109.501 201.744 108.783 204.347 108.837C207.837 108.91 211.156 110.366 213.572 112.886C215.989 115.406 217.306 118.782 217.233 122.272V122.272Z" fill="#C0512B"/>
<path d="M251.986 151.021C251.907 154.705 250.368 158.207 247.707 160.756C245.047 163.305 241.483 164.693 237.799 164.614C235.975 164.577 234.176 164.181 232.506 163.448C230.835 162.715 229.325 161.66 228.063 160.343C226.8 159.026 225.81 157.473 225.148 155.773C224.486 154.073 224.166 152.259 224.206 150.435" stroke="#010024" stroke-width="0.803975" stroke-miterlimit="10" stroke-linecap="round"/>
<path d="M224.762 414.937L61.9099 338.271L188.942 179.386L234.463 206.106L224.762 414.937Z" fill="#FBD206"/>
<path d="M83.3854 348.348C83.3854 348.348 64.8182 385.798 126.336 462.216C187.853 538.633 320.95 709.969 320.95 709.969" stroke="#000022" stroke-width="0.803975" stroke-miterlimit="10" stroke-linecap="round"/>
<path d="M311.023 692.236C311.775 690.267 389.433 598.723 389.433 598.723" stroke="#000022" stroke-width="0.803975" stroke-miterlimit="10" stroke-linecap="round"/>
<path d="M221.456 198.435L230.315 181.994C230.315 181.994 259.83 181.618 263.557 144.01H273.784C276.329 144.01 278.774 143.021 280.604 141.251C282.433 139.482 283.504 137.071 283.59 134.528V134.528C283.634 133.212 283.413 131.901 282.94 130.672C282.468 129.444 281.753 128.323 280.838 127.377C279.923 126.43 278.827 125.677 277.615 125.163C276.403 124.649 275.1 124.384 273.784 124.384H263.956C263.956 124.384 264.617 104.404 250.633 97.0776" stroke="#000022" stroke-width="0.803975" stroke-miterlimit="10" stroke-linecap="round"/>
<path d="M198.658 182.919L202.776 175.637C202.776 175.637 191.445 168.078 187.898 149.045" stroke="#010024" stroke-width="0.803975" stroke-miterlimit="10" stroke-linecap="round"/>
<path d="M325.901 29.4585L413.057 248.117L250.746 419.438L325.901 29.4585Z" fill="#FCDBAA"/>
<path d="M385.104 297.026L415.882 301.805L410.735 311.258L364.02 304.984L364.005 304.939L351.907 308.598L309.175 321.53L301.398 295.824L354.8 279.661L368.521 260.177L376.163 264.242L370.136 272.583L405.272 253.505L408.405 260.425L382.692 277.407L415.386 266.76L418.166 277.422L385.563 287.138L420.03 282.802L423.411 292.105L385.104 297.026Z" fill="#C0512B"/>
<path d="M368.709 260.065L375.231 265.025L370.211 272.088L405.527 254.805L407.03 260.817L382.985 277.348L415.762 267.527L418.301 277.348L385.232 287.116L420.225 284.133L421.3 291.624L385.232 296.884L414.507 303.061L410.78 311.161L364.193 303.647L352.922 307.404L346.91 281.856L356.303 280.203L368.709 260.065Z" stroke="#000022" stroke-width="0.803975" stroke-linecap="round" stroke-linejoin="round"/>
<path d="M260.514 417.935L496.455 462.275L571.611 81.313" stroke="#000022" stroke-width="0.803975" stroke-miterlimit="10" stroke-linecap="round"/>
<path d="M407.219 237.2L325.27 34.7188L280.261 277.37" stroke="#000022" stroke-width="0.803975" stroke-miterlimit="10" stroke-linecap="round"/>
<path d="M322.895 64.0238C338.665 64.0238 351.449 51.24 351.449 35.4704C351.449 19.7008 338.665 6.91699 322.895 6.91699C307.126 6.91699 294.342 19.7008 294.342 35.4704C294.342 51.24 307.126 64.0238 322.895 64.0238Z" fill="#FBD206"/>
<path d="M322.52 58.3878C338.29 58.3878 351.074 45.604 351.074 29.8344C351.074 14.0648 338.29 1.28101 322.52 1.28101C306.751 1.28101 293.967 14.0648 293.967 29.8344C293.967 45.604 306.751 58.3878 322.52 58.3878Z" stroke="#000022" stroke-width="0.803975" stroke-miterlimit="10" stroke-linecap="round"/>
<path d="M356.04 323.063L257.974 346.739C246.227 349.576 233.835 347.63 223.522 341.33C213.21 335.03 205.823 324.891 202.986 313.144L201.483 306.885L207.495 305.427L172.299 221.067L234.433 206.332L254.119 294.186L343.837 272.523L356.04 323.063Z" fill="#FBD206"/>
<path d="M224.83 414.802L78.824 343.651L193.549 180.905L236.829 207.429L252.767 299.935L342.905 279.549" stroke="#000022" stroke-width="0.803975" stroke-miterlimit="10" stroke-linecap="round"/>
<path d="M195.299 253.633C195.299 253.633 199.808 342.667 247.146 341.134C294.485 339.601 354.747 316.691 354.747 316.691" stroke="#000022" stroke-width="0.803975" stroke-miterlimit="10" stroke-linecap="round"/>
</svg>
