<svg width="303" height="412" viewBox="0 0 303 412" fill="none" xmlns="http://www.w3.org/2000/svg">
<path d="M210.573 119.956L226.464 115.954L225.887 121.68L202.441 128.104L168.839 158.786L159.41 148.102L192.538 117.85L196.034 101.36L200.568 101.766L198.55 110.747L211.509 94.325L214.432 97.0893L205.415 110.779L219.101 98.7689L222.617 103.458L208.784 114.986L224.611 105.724L228.143 109.613L210.573 119.956Z" fill="#C0512B"/>
<path d="M210.573 119.956L226.464 115.954L225.887 121.68L202.441 128.104L168.839 158.786L159.41 148.102L192.538 117.85L196.034 101.36L200.568 101.766L198.55 110.747L211.509 94.325L214.432 97.0893L205.415 110.779L219.101 98.7689L222.617 103.458L208.784 114.986L224.611 105.724L228.143 109.613L210.573 119.956Z" stroke="#000022" stroke-width="0.42469" stroke-linecap="round" stroke-linejoin="round"/>
<path d="M205.024 133.01L168.222 167.742C167.637 168.299 167.018 168.82 166.37 169.301L165.497 170.104C158.079 176.855 148.619 176.855 139.289 169.904L96.7965 136.06L121.495 112.936L153.849 149.601L189.465 115.986L205.024 133.01Z" fill="#FBD206"/>
<path d="M126.618 119.196L154.042 149.789L165.114 141.054" stroke="#000022" stroke-width="0.42469" stroke-miterlimit="10" stroke-linecap="round"/>
<path d="M302.211 42.4638L171.375 16.6602L131.674 224.961L262.511 250.765L302.211 42.4638Z" fill="#4B81FF"/>
<path d="M19.6713 378.223L64.327 385.117C67.282 385.573 70.1197 386.617 72.6781 388.189C75.2364 389.76 77.4655 391.829 79.2378 394.278C81.0101 396.726 82.2911 399.505 83.0076 402.456C83.7241 405.408 83.862 408.475 83.4135 411.48L16.2445 401.11L19.6596 378.221L19.6713 378.223Z" fill="#000022"/>
<path d="M40.5479 331.819L40.544 331.819C32.9931 330.653 25.9429 335.934 24.7969 343.616L19.3323 380.242C18.1863 387.923 23.3784 395.095 30.9293 396.261L30.9332 396.261C38.484 397.427 45.5342 392.145 46.6802 384.464L52.1449 347.838C53.2909 340.157 48.0987 332.985 40.5479 331.819Z" fill="#C0512B" stroke="#000022" stroke-width="0.42469" stroke-miterlimit="10"/>
<path d="M92.2858 142.702C82.6412 142.18 73.1137 145.05 65.3038 150.83C57.4939 156.61 51.8774 164.949 49.3978 174.444L0.466507 361.824L72.9985 364.721L97.6853 192.875L92.2858 142.702Z" fill="#FCDBAA"/>
<path d="M45.6139 191.721C45.286 192.927 1.97542 356.327 1.97542 356.327L69.803 358.336" stroke="#000022" stroke-width="0.42469" stroke-miterlimit="10" stroke-linecap="round"/>
<path d="M198.654 375.968L230.194 343.079C234.409 338.684 240.167 336.172 246.203 336.096C252.239 336.02 258.057 338.386 262.378 342.674L214.937 392.143L198.646 375.977L198.654 375.968Z" fill="#000022"/>
<path d="M173.765 331.66L173.762 331.663C168.429 337.224 168.538 346.13 174.005 351.555L200.073 377.424C205.54 382.849 214.295 382.739 219.628 377.177L219.631 377.175C224.964 371.613 224.856 362.707 219.389 357.282L193.32 331.413C187.853 325.988 179.098 326.099 173.765 331.66Z" fill="#C0512B" stroke="#000022" stroke-width="0.42469" stroke-miterlimit="10"/>
<path d="M51.5068 173.961C45.3101 181.497 41.8519 190.973 41.7131 200.797C41.5742 210.62 44.7633 220.193 50.7445 227.907L168.783 380.125L214.566 322.824L94.2013 199.657L51.5068 173.961Z" fill="#FCDBAA"/>
<path d="M148.667 72.487C148.635 73.8507 148.08 75.1475 147.12 76.1003C146.161 77.0531 144.873 77.5863 143.532 77.5859H143.417L138.547 77.4814L138.527 78.4658C138.428 83.3074 136.616 87.9501 133.423 91.5427C130.231 95.1353 125.873 97.4369 121.148 98.0254L115.006 109.991L101.829 102.992L106.419 94.0838C103.923 92.1657 101.91 89.672 100.547 86.8079C99.1838 83.9438 98.509 80.7913 98.578 77.61L98.815 66.002C98.9311 60.6662 101.125 55.5956 104.914 51.904C108.703 48.2124 113.777 46.2017 119.023 46.3138H119.418C124.663 46.4298 129.648 48.6598 133.278 52.5138C136.907 56.3677 138.883 61.5301 138.772 66.8658V67.0667L143.642 67.1712C145.001 67.2008 146.292 67.7768 147.234 68.7732C148.176 69.7696 148.691 71.105 148.667 72.487V72.487Z" fill="#C0512B"/>
<path d="M124.735 58.3835L124.731 58.3834C120.982 58.3028 117.878 61.3292 117.799 65.143L117.754 67.3042C117.675 71.1179 120.65 74.2749 124.399 74.3554L124.403 74.3555C128.152 74.4361 131.256 71.4097 131.335 67.5959L131.38 65.4347C131.459 61.621 128.484 58.464 124.735 58.3835Z" fill="#F8FAFC"/>
<path d="M131.622 66.6462C131.67 64.3433 130.447 62.4493 128.889 62.4159C127.332 62.3824 126.031 64.2222 125.983 66.5251C125.935 68.828 127.159 70.7219 128.716 70.7554C130.273 70.7889 131.575 68.9491 131.622 66.6462Z" fill="#010024"/>
<path d="M141.335 45.4941C141.302 47.1131 140.846 48.694 140.013 50.0743C139.181 51.4545 138.002 52.5844 136.598 53.3478C135.194 54.1112 133.615 54.4805 132.025 54.418C130.434 54.3554 128.888 53.8631 127.546 52.9917C127.011 53.6416 126.321 54.1407 125.542 54.4414C124.762 54.742 123.92 54.834 123.096 54.7086C122.272 54.5832 121.493 54.2445 120.834 53.7251C120.176 53.2056 119.659 52.5228 119.335 51.7421C119.427 51.5533 119.507 51.3587 119.576 51.1595C119.433 51.1836 119.295 51.1997 119.153 51.2157C119.201 51.3954 119.262 51.5713 119.335 51.7421C118.848 52.7625 118.118 53.6424 117.21 54.3009C116.303 54.9594 115.247 55.3755 114.14 55.511C113.737 58.079 112.591 60.4666 110.849 62.3694C109.106 64.2722 106.846 65.604 104.357 66.1948C104.182 67.2553 103.829 68.2773 103.314 69.2164C103.979 70.1854 104.443 71.2818 104.679 72.4391C104.915 73.5963 104.916 74.7902 104.685 75.9482C104.453 77.1062 103.992 78.2042 103.33 79.1754C102.668 80.1466 101.819 80.9708 100.834 81.5979C99.8491 82.225 98.7494 82.6419 97.6014 82.8233C96.4534 83.0047 95.2811 82.9468 94.1558 82.6531C93.0304 82.3594 91.9755 81.836 91.0552 81.1149C90.1348 80.3937 89.3682 79.4897 88.8019 78.4578C86.1545 81.4886 82.6652 83.6307 78.7952 84.6007C74.9253 85.5706 70.8571 85.3228 67.1286 83.8901C63.4001 82.4573 60.1869 79.907 57.914 76.5765C55.6411 73.246 54.4155 69.2921 54.3993 65.2378C54.3832 61.1834 55.5772 57.2195 57.8234 53.8704C60.0696 50.5212 63.2624 47.9445 66.9793 46.4809C70.6962 45.0174 74.7623 44.7361 78.6399 45.674C82.5174 46.612 86.0238 48.7252 88.6952 51.7341C89.144 48.3043 90.9079 45.1942 93.602 43.0821C96.2962 40.97 99.702 40.0273 103.077 40.4595C103.026 40.1166 103.005 39.7697 103.014 39.4229C103.04 38.0801 103.475 36.7785 104.257 35.6965C105.039 34.6145 106.131 33.8048 107.383 33.3785C108.635 32.9522 109.986 32.9301 111.251 33.3151C112.516 33.7002 113.633 34.4736 114.449 35.5295C115.586 34.9085 116.851 34.5699 118.142 34.5413C119.433 34.5127 120.711 34.7948 121.874 35.3647C122.094 34.1598 122.746 33.0808 123.703 32.3365C124.66 31.5923 125.855 31.2356 127.056 31.3356C128.256 31.4356 129.378 31.9851 130.203 32.8779C131.029 33.7706 131.499 34.943 131.524 36.1683C132.783 36.0499 134.052 36.2031 135.249 36.6179C136.446 37.0326 137.543 37.6997 138.469 38.5753C139.395 39.4509 140.129 40.5155 140.623 41.6994C141.117 42.8834 141.36 44.16 141.335 45.4459V45.4941Z" fill="#010024"/>
<path d="M114.326 65.7651C114.298 67.1571 113.864 68.5093 113.08 69.6506C112.296 70.792 111.197 71.6713 109.922 72.1772C108.647 72.6832 107.253 72.7931 105.916 72.4931C104.58 72.1931 103.361 71.4966 102.413 70.4918C101.466 69.487 100.833 68.2189 100.594 66.848C100.355 65.477 100.521 64.0648 101.071 62.7898C101.621 61.5149 102.53 60.4345 103.684 59.6853C104.837 58.9361 106.184 58.5518 107.552 58.5809C109.387 58.6199 111.131 59.3987 112.402 60.746C113.672 62.0932 114.364 63.8986 114.326 65.7651V65.7651Z" fill="#C0512B"/>
<path d="M132.595 81.1381C132.553 83.1079 131.744 84.9803 130.346 86.3434C128.947 87.7065 127.074 88.4487 125.137 88.4067C124.178 88.3868 123.233 88.1749 122.355 87.783C121.476 87.3911 120.683 86.8269 120.019 86.1227C119.356 85.4185 118.835 84.5881 118.487 83.679C118.139 82.7699 117.971 81.8 117.992 80.8247" stroke="#010024" stroke-width="0.42469" stroke-miterlimit="10" stroke-linecap="round"/>
<path d="M118.284 222.262L32.678 181.266L99.455 96.3057L123.383 110.594L118.284 222.262Z" fill="#FBD206"/>
<path d="M43.9666 186.655C43.9666 186.655 34.2064 206.68 66.5443 247.544C98.8821 288.407 168.847 380.025 168.847 380.025" stroke="#000022" stroke-width="0.42469" stroke-miterlimit="10" stroke-linecap="round"/>
<path d="M163.629 370.543C164.024 369.49 204.846 320.539 204.846 320.539" stroke="#000022" stroke-width="0.42469" stroke-miterlimit="10" stroke-linecap="round"/>
<path d="M116.546 106.492L121.203 97.7002C121.203 97.7002 136.718 97.4993 138.677 77.3892H144.053C145.391 77.3889 146.676 76.8599 147.638 75.9138C148.6 74.9678 149.163 73.6786 149.208 72.3184V72.3184C149.231 71.6149 149.115 70.9138 148.866 70.2569C148.618 69.6 148.242 69.0006 147.761 68.4945C147.28 67.9884 146.704 67.5859 146.067 67.311C145.43 67.036 144.745 66.8943 144.053 66.8941H138.887C138.887 66.8941 139.234 56.2103 131.883 52.2927" stroke="#000022" stroke-width="0.42469" stroke-miterlimit="10" stroke-linecap="round"/>
<path d="M104.562 98.1947L106.727 94.3012C106.727 94.3012 100.77 90.2591 98.9059 80.0815" stroke="#010024" stroke-width="0.42469" stroke-miterlimit="10" stroke-linecap="round"/>
<path d="M171.45 16.1345L217.265 133.058L131.943 224.669L171.45 16.1345Z" fill="#FCDBAA"/>
<path d="M202.571 159.212L218.749 161.767L216.044 166.822L191.487 163.467L191.479 163.443L185.12 165.399L162.657 172.314L158.569 158.569L186.641 149.926L193.853 139.507L197.87 141.681L194.703 146.141L213.172 135.939L214.819 139.64L201.303 148.721L218.489 143.027L219.95 148.729L202.812 153.924L220.93 151.606L222.707 156.58L202.571 159.212Z" fill="#C0512B"/>
<path d="M193.952 139.447L197.381 142.099L194.742 145.876L213.307 136.635L214.096 139.849L201.457 148.689L218.686 143.437L220.021 148.689L202.638 153.912L221.033 152.317L221.597 156.323L202.638 159.135L218.027 162.438L216.068 166.77L191.578 162.752L185.653 164.761L182.493 151.099L187.431 150.215L193.952 139.447Z" stroke="#000022" stroke-width="0.42469" stroke-linecap="round" stroke-linejoin="round"/>
<path d="M137.078 223.865L261.104 247.576L300.611 43.863" stroke="#000022" stroke-width="0.42469" stroke-miterlimit="10" stroke-linecap="round"/>
<path d="M214.195 127.22L171.118 18.9473L147.458 148.701" stroke="#000022" stroke-width="0.42469" stroke-miterlimit="10" stroke-linecap="round"/>
<path d="M169.87 34.6174C178.159 34.6174 184.879 27.7815 184.879 19.349C184.879 10.9165 178.159 4.08057 169.87 4.08057C161.58 4.08057 154.86 10.9165 154.86 19.349C154.86 27.7815 161.58 34.6174 169.87 34.6174Z" fill="#FBD206"/>
<path d="M169.672 31.6035C177.962 31.6035 184.682 24.7676 184.682 16.3351C184.682 7.90255 177.962 1.06665 169.672 1.06665C161.383 1.06665 154.663 7.90255 154.663 16.3351C154.663 24.7676 161.383 31.6035 169.672 31.6035Z" stroke="#000022" stroke-width="0.42469" stroke-miterlimit="10" stroke-linecap="round"/>
<path d="M187.293 173.134L135.742 185.794C129.568 187.311 123.053 186.271 117.632 182.902C112.212 179.533 108.328 174.111 106.837 167.83L106.047 164.483L109.207 163.703L90.7058 118.593L123.367 110.714L133.716 157.692L180.878 146.108L187.293 173.134Z" fill="#FBD206"/>
<path d="M118.319 222.19L41.5689 184.144L101.876 97.1177L124.627 111.301L133.005 160.767L180.388 149.866" stroke="#000022" stroke-width="0.42469" stroke-miterlimit="10" stroke-linecap="round"/>
<path d="M102.796 136.008C102.796 136.008 105.166 183.617 130.051 182.797C154.935 181.978 186.613 169.727 186.613 169.727" stroke="#000022" stroke-width="0.42469" stroke-miterlimit="10" stroke-linecap="round"/>
</svg>
