<svg width="531" height="656" viewBox="0 0 531 656" fill="none" xmlns="http://www.w3.org/2000/svg">
<path d="M369.149 190.664L397.068 184.28L396.055 193.414L354.86 203.664L295.823 252.61L279.258 235.566L337.462 187.305L343.604 160.999L351.57 161.646L348.024 175.973L370.794 149.775L375.929 154.185L360.086 176.024L384.132 156.865L390.308 164.345L366.005 182.735L393.813 167.96L400.017 174.165L369.149 190.664Z" fill="#C0512B"/>
<path d="M369.149 190.664L397.068 184.28L396.055 193.414L354.86 203.664L295.823 252.61L279.258 235.566L337.462 187.305L343.604 160.999L351.57 161.646L348.024 175.973L370.794 149.775L375.929 154.185L360.086 176.024L384.132 156.865L390.308 164.345L366.005 182.735L393.813 167.96L400.017 174.165L369.149 190.664Z" stroke="#000022" stroke-width="0.826472" stroke-linecap="round" stroke-linejoin="round"/>
<path d="M359.398 211.49L294.74 266.897C293.711 267.786 292.624 268.617 291.486 269.385L289.952 270.667C276.919 281.435 260.298 281.435 243.906 270.346L169.248 216.355L212.642 179.466L269.486 237.957L332.063 184.331L359.398 211.49Z" fill="#FBD206"/>
<path d="M221.643 189.453L269.827 238.258L289.279 224.323" stroke="#000022" stroke-width="0.826472" stroke-miterlimit="10" stroke-linecap="round"/>
<path d="M530.153 67.0402L300.278 25.8755L230.526 358.18L460.401 399.345L530.153 67.0402Z" fill="#4B81FF"/>
<path d="M33.7423 602.679L112.2 613.678C117.392 614.406 122.378 616.071 126.873 618.578C131.368 621.086 135.284 624.387 138.398 628.292C141.512 632.198 143.763 636.631 145.021 641.34C146.28 646.049 146.523 650.941 145.735 655.736L27.7215 639.192L33.7217 602.677L33.7423 602.679Z" fill="#000022"/>
<path d="M70.4213 528.652L70.4145 528.651C57.148 526.791 44.7611 535.217 42.7476 547.47L33.1464 605.901C31.133 618.155 40.2554 629.596 53.5219 631.456L53.5288 631.457C66.7953 633.316 79.1822 624.89 81.1957 612.637L90.7968 554.206C92.8103 541.953 83.6879 530.511 70.4213 528.652Z" fill="#C0512B" stroke="#000022" stroke-width="0.826472" stroke-miterlimit="10"/>
<path d="M161.323 226.951C144.377 226.118 127.638 230.697 113.916 239.918C100.195 249.139 90.3269 262.441 85.9703 277.589L0 576.518L127.436 581.139L170.809 306.992L161.323 226.951Z" fill="#FCDBAA"/>
<path d="M79.3221 305.152C78.7461 307.075 2.65112 567.749 2.65112 567.749L121.821 570.954" stroke="#000022" stroke-width="0.826472" stroke-miterlimit="10" stroke-linecap="round"/>
<path d="M348.207 599.083L403.621 546.616C411.027 539.604 421.144 535.596 431.749 535.475C442.353 535.354 452.576 539.128 460.167 545.968L376.816 624.888L348.193 599.097L348.207 599.083Z" fill="#000022"/>
<path d="M304.478 528.397L304.473 528.402C295.103 537.274 295.294 551.482 304.899 560.136L350.701 601.405C360.306 610.059 375.688 609.883 385.058 601.012L385.063 601.007C394.433 592.135 394.242 577.927 384.637 569.273L338.836 528.004C329.231 519.349 313.848 519.525 304.478 528.397Z" fill="#C0512B" stroke="#000022" stroke-width="0.826472" stroke-miterlimit="10"/>
<path d="M89.6762 276.82C78.7888 288.842 72.7128 303.959 72.4689 319.63C72.225 335.302 77.8281 350.574 88.3368 362.88L295.726 605.715L376.165 514.302L164.689 317.811L89.6762 276.82Z" fill="#FCDBAA"/>
<path d="M260.382 114.937C260.325 117.112 259.35 119.181 257.664 120.701C255.978 122.221 253.716 123.072 251.36 123.071H251.159L242.602 122.904L242.567 124.475C242.392 132.199 239.208 139.605 233.6 145.337C227.991 151.068 220.334 154.74 212.032 155.679L201.24 174.767L178.089 163.601L186.153 149.39C181.768 146.331 178.232 142.352 175.837 137.783C173.442 133.214 172.257 128.185 172.378 123.11L172.794 104.591C172.998 96.0791 176.852 87.9899 183.509 82.1006C190.166 76.2113 199.082 73.0037 208.298 73.1825H208.992C218.208 73.3675 226.967 76.9252 233.344 83.0735C239.72 89.2217 243.193 97.4572 242.997 105.969V106.29L251.554 106.457C253.941 106.504 256.21 107.423 257.865 109.012C259.519 110.602 260.424 112.732 260.382 114.937V114.937Z" fill="#C0512B"/>
<path d="M218.334 92.4378L218.327 92.4376C211.74 92.3091 206.287 97.1371 206.148 103.221L206.069 106.669C205.93 112.753 211.157 117.789 217.744 117.918L217.751 117.918C224.338 118.047 229.791 113.219 229.93 107.134L230.009 103.687C230.148 97.6026 224.921 92.5663 218.334 92.4378Z" fill="#F8FAFC"/>
<path d="M230.436 105.619C230.52 101.945 228.37 98.9239 225.634 98.8706C222.898 98.8172 220.612 101.752 220.528 105.426C220.444 109.1 222.594 112.121 225.33 112.175C228.065 112.228 230.352 109.293 230.436 105.619Z" fill="#010024"/>
<path d="M247.501 71.8747C247.443 74.4576 246.641 76.9796 245.178 79.1815C243.715 81.3834 241.644 83.1859 239.177 84.4038C236.711 85.6216 233.937 86.2109 231.142 86.111C228.347 86.0112 225.632 85.2259 223.274 83.8357C222.334 84.8725 221.121 85.6688 219.752 86.1484C218.383 86.628 216.903 86.7748 215.455 86.5747C214.007 86.3746 212.639 85.8343 211.482 85.0057C210.324 84.177 209.417 83.0877 208.846 81.8422C209.009 81.541 209.15 81.2306 209.27 80.9128C209.02 80.9512 208.777 80.9769 208.527 81.0025C208.612 81.2891 208.718 81.5697 208.846 81.8422C207.992 83.4701 206.709 84.8738 205.114 85.9243C203.52 86.9749 201.665 87.6387 199.72 87.8548C199.012 91.9515 196.999 95.7605 193.937 98.7961C190.876 101.832 186.905 103.956 182.531 104.899C182.223 106.591 181.603 108.221 180.698 109.719C181.867 111.265 182.683 113.014 183.097 114.86C183.511 116.706 183.514 118.611 183.107 120.458C182.699 122.306 181.889 124.057 180.726 125.607C179.563 127.156 178.072 128.471 176.341 129.471C174.611 130.472 172.679 131.137 170.662 131.426C168.645 131.716 166.585 131.623 164.608 131.155C162.631 130.686 160.778 129.851 159.161 128.701C157.544 127.55 156.197 126.108 155.202 124.462C150.55 129.297 144.42 132.714 137.62 134.262C130.821 135.809 123.673 135.414 117.123 133.128C110.572 130.842 104.926 126.774 100.933 121.461C96.9396 116.148 94.7863 109.84 94.7579 103.372C94.7294 96.904 96.8272 90.5804 100.774 85.2375C104.72 79.8945 110.33 75.7838 116.86 73.4491C123.391 71.1143 130.535 70.6654 137.347 72.1618C144.16 73.6582 150.321 77.0293 155.014 81.8294C155.803 76.3578 158.902 71.3963 163.635 68.0268C168.369 64.6574 174.353 63.1535 180.282 63.8431C180.192 63.2959 180.155 62.7425 180.171 62.1893C180.218 60.0471 180.981 57.9707 182.355 56.2445C183.729 54.5183 185.648 53.2268 187.848 52.5467C190.047 51.8666 192.421 51.8313 194.643 52.4455C196.866 53.0598 198.828 54.2937 200.262 55.9781C202.26 54.9875 204.484 54.4473 206.751 54.4016C209.018 54.356 211.265 54.8061 213.309 55.7153C213.695 53.7931 214.84 52.0717 216.522 50.8844C218.204 49.697 220.302 49.1281 222.412 49.2876C224.522 49.4471 226.492 50.3238 227.943 51.748C229.393 53.1721 230.219 55.0425 230.263 56.9972C232.475 56.8084 234.705 57.0528 236.807 57.7144C238.91 58.3761 240.838 59.4402 242.465 60.8371C244.092 62.234 245.382 63.9324 246.249 65.8211C247.117 67.7098 247.544 69.7464 247.501 71.7978V71.8747Z" fill="#010024"/>
<path d="M200.047 104.213C199.997 106.434 199.235 108.591 197.858 110.412C196.48 112.232 194.549 113.635 192.309 114.442C190.069 115.249 187.619 115.425 185.271 114.946C182.923 114.468 180.781 113.357 179.116 111.754C177.451 110.151 176.339 108.128 175.919 105.941C175.499 103.753 175.791 101.5 176.757 99.4665C177.724 97.4326 179.321 95.7091 181.348 94.5139C183.375 93.3187 185.741 92.7055 188.145 92.752C191.369 92.8142 194.433 94.0566 196.665 96.2059C198.897 98.3553 200.114 101.235 200.047 104.213V104.213Z" fill="#C0512B"/>
<path d="M232.143 128.738C232.07 131.88 230.649 134.867 228.192 137.042C225.735 139.216 222.443 140.4 219.041 140.333C217.356 140.301 215.695 139.963 214.152 139.338C212.609 138.713 211.215 137.813 210.049 136.689C208.883 135.566 207.968 134.241 207.357 132.791C206.746 131.341 206.45 129.793 206.487 128.238" stroke="#010024" stroke-width="0.826472" stroke-miterlimit="10" stroke-linecap="round"/>
<path d="M207 353.874L56.5939 288.473L173.918 152.935L215.96 175.729L207 353.874Z" fill="#FBD206"/>
<path d="M76.4282 297.069C76.4282 297.069 59.2799 329.016 116.096 394.206C172.912 459.395 295.837 605.555 295.837 605.555" stroke="#000022" stroke-width="0.826472" stroke-miterlimit="10" stroke-linecap="round"/>
<path d="M286.669 590.427C287.363 588.747 359.086 510.655 359.086 510.655" stroke="#000022" stroke-width="0.826472" stroke-miterlimit="10" stroke-linecap="round"/>
<path d="M203.947 169.184L212.129 155.159C212.129 155.159 239.388 154.839 242.83 122.757H252.275C254.626 122.757 256.884 121.913 258.574 120.403C260.264 118.894 261.253 116.838 261.332 114.668V114.668C261.373 113.545 261.169 112.427 260.732 111.379C260.296 110.331 259.635 109.375 258.79 108.567C257.945 107.76 256.933 107.118 255.814 106.679C254.695 106.241 253.491 106.014 252.275 106.014H243.198C243.198 106.014 243.809 88.9702 230.894 82.7205" stroke="#000022" stroke-width="0.826472" stroke-miterlimit="10" stroke-linecap="round"/>
<path d="M182.892 155.948L186.695 149.737C186.695 149.737 176.229 143.288 172.954 127.052" stroke="#010024" stroke-width="0.826472" stroke-miterlimit="10" stroke-linecap="round"/>
<path d="M300.41 25.0372L380.905 211.567L230.998 357.714L300.41 25.0372Z" fill="#FCDBAA"/>
<path d="M355.089 253.289L383.514 257.366L378.76 265.43L335.616 260.077L335.602 260.039L324.429 263.16L284.962 274.192L277.779 252.264L327.1 238.476L339.773 221.855L346.83 225.323L341.265 232.438L373.715 216.163L376.609 222.066L352.861 236.553L383.056 227.47L385.624 236.566L355.512 244.854L387.345 241.155L390.468 249.091L355.089 253.289Z" fill="#C0512B"/>
<path d="M339.946 221.759L345.97 225.989L341.334 232.015L373.951 217.272L375.339 222.4L353.131 236.502L383.403 228.124L385.749 236.502L355.207 244.835L387.525 242.29L388.518 248.681L355.207 253.168L382.244 258.437L378.802 265.346L335.775 258.937L325.365 262.142L319.813 240.348L328.488 238.938L339.946 221.759Z" stroke="#000022" stroke-width="0.826472" stroke-linecap="round" stroke-linejoin="round"/>
<path d="M240.02 356.432L457.93 394.257L527.342 69.2723" stroke="#000022" stroke-width="0.826472" stroke-miterlimit="10" stroke-linecap="round"/>
<path d="M375.513 202.253L299.827 29.5243L258.258 236.521" stroke="#000022" stroke-width="0.826472" stroke-miterlimit="10" stroke-linecap="round"/>
<path d="M297.634 54.5233C312.199 54.5233 324.005 43.6179 324.005 30.1654C324.005 16.713 312.199 5.80762 297.634 5.80762C283.07 5.80762 271.263 16.713 271.263 30.1654C271.263 43.6179 283.07 54.5233 297.634 54.5233Z" fill="#FBD206"/>
<path d="M297.287 49.7156C311.852 49.7156 323.658 38.8103 323.658 25.3578C323.658 11.9054 311.852 1 297.287 1C282.723 1 270.916 11.9054 270.916 25.3578C270.916 38.8103 282.723 49.7156 297.287 49.7156Z" stroke="#000022" stroke-width="0.826472" stroke-miterlimit="10" stroke-linecap="round"/>
<path d="M328.246 275.5L237.674 295.697C226.825 298.117 215.38 296.457 205.856 291.083C196.331 285.708 189.509 277.059 186.889 267.038L185.501 261.699L191.053 260.455L158.547 188.491L215.932 175.921L234.114 250.866L316.975 232.386L328.246 275.5Z" fill="#FBD206"/>
<path d="M207.063 353.759L72.2153 293.063L178.172 154.23L218.146 176.857L232.865 255.77L316.115 238.38" stroke="#000022" stroke-width="0.826472" stroke-miterlimit="10" stroke-linecap="round"/>
<path d="M179.789 216.272C179.789 216.272 183.953 292.223 227.674 290.916C271.394 289.608 327.052 270.064 327.052 270.064" stroke="#000022" stroke-width="0.826472" stroke-miterlimit="10" stroke-linecap="round"/>
</svg>
