<svg width="508" height="680" viewBox="0 0 508 680" fill="none" xmlns="http://www.w3.org/2000/svg">
<path d="M353.47 197.621L380.204 191.003L379.233 200.472L339.788 211.097L283.259 261.839L267.397 244.17L323.129 194.139L329.01 166.868L336.639 167.539L333.243 182.391L355.045 155.232L359.963 159.804L344.792 182.444L367.817 162.582L373.731 170.336L350.46 189.401L377.087 174.084L383.028 180.517L353.47 197.621Z" fill="#C0512B"/>
<path d="M353.47 197.621L380.204 191.003L379.233 200.472L339.788 211.097L283.259 261.839L267.397 244.17L323.129 194.139L329.01 166.868L336.639 167.539L333.243 182.391L355.045 155.232L359.963 159.804L344.792 182.444L367.817 162.582L373.731 170.336L350.46 189.401L377.087 174.084L383.028 180.517L353.47 197.621Z" stroke="#000022" stroke-width="0.710997" stroke-linecap="round" stroke-linejoin="round"/>
<path d="M344.134 219.21L282.222 276.65C281.236 277.572 280.196 278.433 279.106 279.228L277.637 280.557C265.158 291.721 249.243 291.721 233.547 280.225L162.06 224.254L203.611 186.011L258.041 246.648L317.959 191.055L344.134 219.21Z" fill="#FBD206"/>
<path d="M212.23 196.365L258.367 246.96L276.993 232.514" stroke="#000022" stroke-width="0.710997" stroke-miterlimit="10" stroke-linecap="round"/>
<path d="M507.636 69.4622L287.525 26.7876L220.735 371.281L440.846 413.955L507.636 69.4622Z" fill="#4B81FF"/>
<path d="M32.3088 624.748L107.435 636.15C112.406 636.905 117.18 638.631 121.484 641.23C125.788 643.83 129.538 647.252 132.52 651.3C135.501 655.349 137.656 659.945 138.862 664.827C140.067 669.708 140.299 674.78 139.545 679.751L26.5437 662.6L32.2891 624.745L32.3088 624.748Z" fill="#000022"/>
<path d="M67.4304 548.006L67.4238 548.005C54.7207 546.077 42.8599 554.812 40.932 567.515L31.7386 628.088C29.8106 640.792 38.5456 652.652 51.2487 654.58L51.2552 654.581C63.9583 656.509 75.8191 647.774 77.7471 635.071L86.9405 574.497C88.8684 561.794 80.1335 549.934 67.4304 548.006Z" fill="#C0512B" stroke="#000022" stroke-width="0.710997" stroke-miterlimit="10"/>
<path d="M154.471 235.238C138.246 234.374 122.217 239.121 109.078 248.681C95.9394 258.24 86.4906 272.03 82.319 287.734L0 597.626L122.023 602.418L163.555 318.215L154.471 235.238Z" fill="#FCDBAA"/>
<path d="M75.9532 316.308C75.4017 318.302 2.53857 588.536 2.53857 588.536L116.648 591.859" stroke="#000022" stroke-width="0.710997" stroke-miterlimit="10" stroke-linecap="round"/>
<path d="M333.418 621.02L386.478 566.628C393.569 559.359 403.257 555.205 413.411 555.079C423.566 554.953 433.354 558.866 440.623 565.957L360.812 647.771L333.404 621.034L333.418 621.02Z" fill="#000022"/>
<path d="M291.547 547.742L291.542 547.746C282.57 556.944 282.753 571.673 291.95 580.645L335.806 623.427C345.003 632.399 359.732 632.217 368.704 623.019L368.709 623.015C377.681 613.818 377.498 599.089 368.301 590.116L324.445 547.334C315.248 538.362 300.519 538.545 291.547 547.742Z" fill="#C0512B" stroke="#000022" stroke-width="0.710997" stroke-miterlimit="10"/>
<path d="M85.867 286.937C75.4421 299.4 69.6242 315.071 69.3906 331.317C69.1571 347.564 74.5222 363.396 84.5845 376.153L283.166 627.895L360.188 533.13L157.693 329.432L85.867 286.937Z" fill="#FCDBAA"/>
<path d="M249.322 119.116C249.269 121.371 248.335 123.515 246.721 125.091C245.106 126.667 242.94 127.549 240.684 127.548H240.491L232.298 127.375L232.265 129.003C232.097 137.01 229.049 144.689 223.678 150.63C218.308 156.572 210.976 160.378 203.026 161.352L192.693 181.141L170.525 169.565L178.247 154.833C174.048 151.661 170.662 147.536 168.369 142.8C166.076 138.063 164.94 132.849 165.056 127.588L165.455 108.39C165.65 99.5661 169.341 91.1801 175.715 85.0748C182.089 78.9695 190.627 75.6443 199.451 75.8296H200.116C208.94 76.0214 217.327 79.7096 223.433 86.0834C229.539 92.4571 232.864 100.995 232.677 109.819V110.151L240.87 110.324C243.155 110.373 245.328 111.326 246.913 112.974C248.497 114.621 249.363 116.83 249.322 119.116V119.116Z" fill="#C0512B"/>
<path d="M209.061 95.7914L209.054 95.7913C202.747 95.658 197.526 100.663 197.393 106.97L197.317 110.545C197.184 116.852 202.189 122.073 208.496 122.206L208.503 122.206C214.81 122.339 220.031 117.334 220.164 111.027L220.24 107.453C220.373 101.146 215.368 95.9246 209.061 95.7914Z" fill="#F8FAFC"/>
<path d="M220.649 109.456C220.729 105.648 218.671 102.515 216.051 102.46C213.431 102.405 211.242 105.447 211.162 109.256C211.081 113.064 213.14 116.197 215.76 116.252C218.379 116.307 220.568 113.265 220.649 109.456Z" fill="#010024"/>
<path d="M236.989 74.4742C236.933 77.1518 236.166 79.7663 234.765 82.049C233.364 84.3317 231.381 86.2003 229.019 87.4628C226.657 88.7253 224.001 89.3362 221.325 89.2327C218.649 89.1292 216.049 88.315 213.791 86.8739C212.891 87.9487 211.73 88.7742 210.419 89.2714C209.108 89.7686 207.691 89.9207 206.304 89.7133C204.918 89.5059 203.608 88.9458 202.5 88.0868C201.391 87.2277 200.523 86.0985 199.976 84.8073C200.132 84.495 200.267 84.1732 200.382 83.8437C200.142 83.8836 199.91 83.9102 199.67 83.9368C199.751 84.2339 199.854 84.5248 199.976 84.8073C199.158 86.4949 197.929 87.95 196.403 89.0391C194.876 90.1282 193.1 90.8163 191.238 91.0403C190.56 95.2873 188.632 99.2361 185.7 102.383C182.769 105.53 178.966 107.732 174.778 108.71C174.484 110.463 173.89 112.154 173.024 113.707C174.143 115.309 174.924 117.123 175.32 119.036C175.717 120.95 175.72 122.925 175.33 124.84C174.94 126.755 174.164 128.571 173.051 130.177C171.937 131.783 170.508 133.146 168.852 134.183C167.195 135.221 165.345 135.91 163.414 136.21C161.482 136.51 159.51 136.414 157.617 135.929C155.724 135.443 153.949 134.577 152.401 133.385C150.852 132.192 149.563 130.697 148.61 128.99C144.156 134.003 138.286 137.545 131.775 139.15C125.265 140.754 118.421 140.344 112.148 137.974C105.875 135.605 100.47 131.387 96.646 125.879C92.8222 120.371 90.7604 113.832 90.7332 107.127C90.706 100.422 92.7146 93.866 96.4936 88.3271C100.273 82.7881 105.644 78.5267 111.897 76.1063C118.15 73.6859 124.991 73.2205 131.514 74.7718C138.037 76.323 143.936 79.8178 148.43 84.794C149.186 79.1217 152.153 73.9782 156.685 70.4852C161.218 66.9921 166.948 65.433 172.625 66.1479C172.539 65.5807 172.504 65.007 172.519 64.4335C172.564 62.2127 173.294 60.0602 174.61 58.2707C175.926 56.4812 177.763 55.1422 179.869 54.4372C181.976 53.7322 184.248 53.6956 186.376 54.3324C188.504 54.9692 190.383 56.2483 191.756 57.9944C193.67 56.9675 195.799 56.4076 197.97 56.3602C200.141 56.3129 202.293 56.7795 204.249 57.722C204.619 55.7293 205.716 53.9448 207.326 52.7139C208.936 51.483 210.946 50.8932 212.966 51.0586C214.986 51.2239 216.873 52.1328 218.261 53.6092C219.65 55.0856 220.441 57.0246 220.483 59.051C222.601 58.8552 224.736 59.1086 226.75 59.7945C228.763 60.4805 230.609 61.5836 232.167 63.0317C233.725 64.4799 234.96 66.2405 235.791 68.1985C236.622 70.1565 237.03 72.2678 236.989 74.3945V74.4742Z" fill="#010024"/>
<path d="M191.55 107.999C191.503 110.301 190.773 112.537 189.454 114.425C188.135 116.312 186.287 117.766 184.141 118.603C181.996 119.44 179.651 119.622 177.402 119.126C175.154 118.629 173.103 117.478 171.509 115.816C169.915 114.154 168.849 112.057 168.447 109.79C168.045 107.522 168.325 105.187 169.25 103.078C170.175 100.97 171.705 99.1828 173.646 97.9438C175.587 96.7048 177.852 96.0692 180.154 96.1173C183.241 96.1818 186.176 97.4698 188.313 99.698C190.45 101.926 191.614 104.912 191.55 107.999V107.999Z" fill="#C0512B"/>
<path d="M222.284 133.423C222.214 136.68 220.853 139.777 218.5 142.031C216.147 144.286 212.995 145.513 209.738 145.444C208.125 145.411 206.534 145.06 205.057 144.412C203.579 143.764 202.244 142.831 201.127 141.666C200.011 140.502 199.135 139.128 198.55 137.625C197.965 136.121 197.682 134.517 197.717 132.904" stroke="#010024" stroke-width="0.710997" stroke-miterlimit="10" stroke-linecap="round"/>
<path d="M198.209 366.817L54.1904 299.017L166.532 158.508L206.788 182.137L198.209 366.817Z" fill="#FBD206"/>
<path d="M73.1825 307.928C73.1825 307.928 56.7626 341.047 111.166 408.628C165.569 476.208 283.273 627.729 283.273 627.729" stroke="#000022" stroke-width="0.710997" stroke-miterlimit="10" stroke-linecap="round"/>
<path d="M274.494 612.046C275.158 610.305 343.835 529.349 343.835 529.349" stroke="#000022" stroke-width="0.710997" stroke-miterlimit="10" stroke-linecap="round"/>
<path d="M195.285 175.353L203.119 160.813C203.119 160.813 229.221 160.481 232.517 127.223H241.561C243.812 127.222 245.974 126.347 247.592 124.783C249.21 123.218 250.157 121.086 250.233 118.837V118.837C250.272 117.673 250.077 116.514 249.659 115.427C249.24 114.341 248.608 113.349 247.799 112.512C246.99 111.675 246.021 111.01 244.949 110.555C243.877 110.1 242.725 109.866 241.561 109.866H232.869C232.869 109.866 233.454 92.1965 221.087 85.7175" stroke="#000022" stroke-width="0.710997" stroke-miterlimit="10" stroke-linecap="round"/>
<path d="M175.124 161.631L178.765 155.192C178.765 155.192 168.744 148.507 165.608 131.675" stroke="#010024" stroke-width="0.710997" stroke-miterlimit="10" stroke-linecap="round"/>
<path d="M287.651 25.9189L364.727 219.29L221.187 370.798L287.651 25.9189Z" fill="#FCDBAA"/>
<path d="M340.007 262.543L367.226 266.769L362.674 275.129L321.361 269.58L321.348 269.54L310.65 272.776L272.859 284.212L265.981 261.48L313.208 247.186L325.342 229.955L332.1 233.55L326.77 240.926L357.843 224.055L360.614 230.175L337.874 245.193L366.787 235.777L369.246 245.206L340.413 253.798L370.894 249.964L373.884 258.19L340.007 262.543Z" fill="#C0512B"/>
<path d="M325.508 229.856L331.276 234.241L326.837 240.488L358.069 225.204L359.398 230.52L338.134 245.139L367.12 236.454L369.366 245.139L340.121 253.778L371.067 251.14L372.017 257.765L340.121 262.416L366.01 267.879L362.714 275.042L321.515 268.397L311.547 271.72L306.231 249.126L314.537 247.664L325.508 229.856Z" stroke="#000022" stroke-width="0.710997" stroke-linecap="round" stroke-linejoin="round"/>
<path d="M229.826 369.468L438.481 408.681L504.945 71.7761" stroke="#000022" stroke-width="0.710997" stroke-miterlimit="10" stroke-linecap="round"/>
<path d="M359.564 209.635L287.093 30.5706L247.289 245.16" stroke="#000022" stroke-width="0.710997" stroke-miterlimit="10" stroke-linecap="round"/>
<path d="M284.993 56.4864C298.939 56.4864 310.244 45.181 310.244 31.2351C310.244 17.2893 298.939 5.98389 284.993 5.98389C271.047 5.98389 259.742 17.2893 259.742 31.2351C259.742 45.181 271.047 56.4864 284.993 56.4864Z" fill="#FBD206"/>
<path d="M284.66 51.5025C298.606 51.5025 309.912 40.1971 309.912 26.2512C309.912 12.3054 298.606 1 284.66 1C270.715 1 259.409 12.3054 259.409 26.2512C259.409 40.1971 270.715 51.5025 284.66 51.5025Z" stroke="#000022" stroke-width="0.710997" stroke-miterlimit="10" stroke-linecap="round"/>
<path d="M314.305 285.568L227.58 306.506C217.192 309.015 206.232 307.294 197.113 301.722C187.993 296.151 181.46 287.185 178.951 276.796L177.622 271.261L182.938 269.972L151.813 195.368L206.761 182.337L224.171 260.031L303.513 240.873L314.305 285.568Z" fill="#FBD206"/>
<path d="M198.269 366.697L69.1484 303.775L170.605 159.85L208.881 183.307L222.975 265.114L302.689 247.086" stroke="#000022" stroke-width="0.710997" stroke-miterlimit="10" stroke-linecap="round"/>
<path d="M172.153 224.167C172.153 224.167 176.14 302.905 218.004 301.549C259.868 300.193 313.162 279.933 313.162 279.933" stroke="#000022" stroke-width="0.710997" stroke-miterlimit="10" stroke-linecap="round"/>
</svg>
