<svg width="138" height="217" viewBox="0 0 138 217" fill="none" xmlns="http://www.w3.org/2000/svg">
<path d="M137.619 89.1927C137.531 93.8169 136.013 98.2145 133.389 101.446C130.765 104.677 127.242 106.485 123.575 106.483H123.262L109.942 106.129L109.887 109.467C109.615 125.886 104.659 141.63 95.9284 153.813C87.1978 165.995 75.2777 173.8 62.3541 175.796L45.5553 216.373L9.51636 192.637L22.0695 162.43C15.2428 155.925 9.73868 147.469 6.01048 137.756C2.28227 128.044 0.436606 117.353 0.625469 106.565L1.27363 67.2012C1.59112 49.1072 7.5904 31.9121 17.9534 19.3934C28.3165 6.87476 42.1957 0.0564805 56.542 0.436458H57.6223C71.9683 0.82976 85.6033 8.39226 95.5297 21.4614C105.456 34.5305 110.861 52.0365 110.557 70.1307V70.812L123.877 71.1662C127.593 71.2664 131.125 73.2199 133.701 76.5987C136.277 79.9776 137.686 84.5063 137.619 89.1927V89.1927Z" fill="#C0512B"/>
</svg>
