<svg width="239" height="184" viewBox="0 0 239 184" fill="none" xmlns="http://www.w3.org/2000/svg">
<path d="M238.569 48.6571C238.478 54.1474 237.23 59.5083 234.952 64.1889C232.675 68.8695 229.451 72.701 225.611 75.2897C221.771 77.8784 217.454 79.131 213.103 78.9188C208.753 78.7066 204.525 77.0372 200.855 74.0822C199.391 76.286 197.503 77.9787 195.372 78.9982C193.241 80.0176 190.938 80.3297 188.683 79.9043C186.429 79.479 184.299 78.3306 182.498 76.5692C180.696 74.8077 179.284 72.4922 178.396 69.8447C178.648 69.2044 178.868 68.5445 179.055 67.869C178.666 67.9507 178.288 68.0052 177.899 68.0597C178.03 68.669 178.196 69.2655 178.396 69.8447C177.066 73.3051 175.068 76.2888 172.586 78.5219C170.104 80.755 167.217 82.166 164.19 82.6254C163.087 91.3337 159.953 99.4304 155.187 105.883C150.421 112.336 144.239 116.852 137.43 118.855C136.952 122.452 135.987 125.917 134.578 129.102C136.397 132.388 137.668 136.106 138.312 140.03C138.957 143.955 138.962 148.003 138.327 151.93C137.693 155.857 136.432 159.58 134.622 162.874C132.811 166.167 130.489 168.962 127.796 171.089C125.103 173.215 122.095 174.629 118.955 175.244C115.815 175.859 112.609 175.663 109.531 174.667C106.453 173.671 103.568 171.896 101.051 169.451C98.5337 167.005 96.4369 163.94 94.888 160.44C87.6475 170.718 78.1041 177.982 67.5197 181.271C56.9354 184.561 45.8087 183.721 35.6112 178.862C25.4137 174.003 16.6256 165.355 10.4091 154.061C4.1927 142.767 0.840717 129.359 0.796464 115.61C0.752212 101.861 4.01778 88.4193 10.1613 77.0619C16.3049 65.7044 25.037 56.9665 35.2029 52.0036C45.3688 47.0406 56.4897 46.0865 67.0948 49.2673C77.7 52.4481 87.2899 59.614 94.5963 69.8174C95.8239 58.1867 100.648 47.64 108.017 40.4777C115.385 33.3154 124.7 30.1185 133.93 31.5844C133.791 30.4213 133.733 29.2449 133.757 28.069C133.831 23.5154 135.018 19.1017 137.157 15.4324C139.297 11.763 142.283 9.01756 145.707 7.57193C149.132 6.12629 152.826 6.0512 156.286 7.35695C159.745 8.6627 162.8 11.2854 165.032 14.8659C168.143 12.7603 171.604 11.6121 175.134 11.515C178.664 11.4179 182.161 12.3747 185.342 14.3073C185.944 10.2213 187.726 6.56236 190.344 4.03842C192.962 1.51449 196.229 0.305041 199.513 0.644137C202.797 0.983232 205.865 2.84676 208.122 5.8741C210.38 8.90143 211.667 12.8773 211.734 17.0324C215.177 16.6309 218.649 17.1504 221.922 18.5569C225.195 19.9634 228.196 22.2253 230.729 25.1947C233.262 28.1641 235.269 31.7742 236.62 35.789C237.971 39.8038 238.635 44.133 238.569 48.4936V48.6571Z" fill="#010024"/>
</svg>
