<svg width="39" height="48" viewBox="0 0 39 48" fill="none" xmlns="http://www.w3.org/2000/svg">
<path d="M38.6971 24.3971C38.6193 29.1176 37.4335 33.703 35.2895 37.5735C33.1454 41.4439 30.1396 44.4255 26.652 46.1413C23.1644 47.857 19.3517 48.2298 15.6961 47.2124C12.0405 46.1951 8.70627 43.8334 6.11494 40.4259C3.52361 37.0184 1.79162 32.7183 1.13802 28.0693C0.484412 23.4203 0.938558 18.6312 2.443 14.3077C3.94744 9.98425 6.43459 6.32057 9.58996 3.77999C12.7453 1.23941 16.4272 -0.0639358 20.1699 0.0347588C25.1881 0.167088 29.9591 2.80805 33.4335 7.37678C36.908 11.9455 38.8013 18.0678 38.6971 24.3971V24.3971Z" fill="#C0512B"/>
</svg>
